<svg width="46.534088" height="35.000000" viewBox="0 0 46.5341 35" fill="none" xmlns="http://www.w3.org/2000/svg" xmlns:xlink="http://www.w3.org/1999/xlink">
	<desc>
			Created with Pixso.
	</desc>
	<defs/>
	<path d="M16.4394 0L18.9583 4.50757C17.5442 6.4519 16.2184 8.61743 14.9811 11.0039C13.8321 13.3901 13.1692 15.865 12.9924 18.428L20.2841 19.7539L20.2841 35L0 35L0 24.1289C0 17.8535 1.45834 12.8157 4.375 9.01514C7.38005 5.12622 11.4015 2.12109 16.4394 0ZM42.6894 0L45.2083 4.50757C43.7942 6.4519 42.4684 8.61743 41.2311 11.0039C40.0821 13.3901 39.4192 15.865 39.2424 18.428L46.5341 19.7539L46.5341 35L26.25 35L26.25 24.1289C26.25 17.8535 27.7083 12.8157 30.625 9.01514C33.6301 5.12622 37.6515 2.12109 42.6894 0Z" fill="#CDA582" fill-opacity="1.000000" fill-rule="nonzero"/>
</svg>
