<?xml version="1.0" standalone="no"?>
<!DOCTYPE svg PUBLIC "-//W3C//DTD SVG 20010904//EN"
 "http://www.w3.org/TR/2001/REC-SVG-20010904/DTD/svg10.dtd">
<svg version="1.0" xmlns="http://www.w3.org/2000/svg"
 width="1045.000000pt" height="1045.000000pt" viewBox="0 0 1045.000000 1045.000000"
 preserveAspectRatio="xMidYMid meet">

<g transform="translate(0.000000,1045.000000) scale(0.100000,-0.100000)"
fill="#000000" stroke="none">
<path d="M4880 10439 c-1101 -73 -2158 -498 -3010 -1210 -281 -234 -648 -623
-828 -876 -44 -63 -15 -32 58 59 360 449 808 853 1275 1149 327 207 753 416
1045 513 41 13 109 37 150 51 76 28 116 39 320 92 208 55 429 96 650 122 47 6
123 15 170 22 129 17 691 23 840 9 433 -41 632 -73 935 -150 703 -178 1358
-498 1924 -940 355 -276 723 -651 982 -1000 98 -133 229 -325 229 -336 0 -3 8
-18 19 -32 41 -58 162 -275 236 -422 225 -447 409 -1010 474 -1450 63 -427 73
-545 73 -905 -1 -297 -3 -338 -32 -570 -17 -137 -37 -281 -45 -320 -8 -38 -15
-77 -14 -85 2 -28 18 44 43 190 224 1310 -63 2665 -797 3765 -206 308 -383
523 -661 801 -213 213 -370 351 -571 499 -1002 743 -2230 1106 -3465 1024z"/>
<path d="M4875 10164 c-66 -8 -181 -18 -256 -23 -76 -6 -183 -21 -240 -34 -57
-14 -131 -30 -164 -36 -184 -34 -231 -44 -345 -80 -69 -21 -147 -46 -175 -54
-335 -101 -808 -327 -1155 -552 -259 -168 -465 -331 -702 -552 -384 -359 -664
-714 -944 -1198 -61 -106 -206 -394 -219 -434 -4 -14 -21 -54 -38 -90 -74
-164 -178 -486 -253 -783 -151 -607 -184 -1180 -103 -1808 52 -406 91 -579
226 -995 115 -356 337 -827 490 -1040 24 -33 55 -82 69 -109 66 -125 317 -451
493 -641 585 -630 1275 -1084 2048 -1346 153 -52 351 -107 478 -134 44 -9 89
-21 100 -25 11 -5 36 -11 55 -14 19 -3 71 -12 115 -21 198 -38 549 -65 844
-65 354 0 640 27 956 90 125 25 325 75 363 91 23 10 71 26 105 34 71 18 272
81 302 95 11 5 79 32 150 61 140 56 464 216 610 302 344 203 640 432 949 736
681 670 1141 1475 1365 2391 62 257 76 328 106 570 99 782 22 1563 -224 2283
-197 576 -474 1082 -833 1523 -57 70 -115 142 -130 161 -33 43 -245 260 -364
373 -105 101 -360 314 -440 370 -12 8 -71 49 -131 91 -117 82 -314 203 -445
274 -130 70 -452 225 -467 225 -5 0 -40 14 -78 31 -61 27 -314 115 -433 149
-25 7 -64 19 -88 27 -43 13 -170 41 -292 63 -36 6 -103 21 -150 32 -162 38
-624 79 -875 77 -88 -1 -214 -8 -280 -15z m665 -94 c229 -16 369 -36 660 -95
193 -40 322 -75 565 -157 279 -94 671 -279 939 -443 512 -315 994 -755 1360
-1243 95 -126 303 -438 366 -547 122 -213 290 -591 339 -765 11 -41 30 -100
41 -130 38 -100 139 -501 160 -630 6 -41 16 -95 21 -120 34 -170 59 -507 59
-791 0 -202 -32 -649 -55 -769 -8 -41 -26 -138 -40 -215 -15 -77 -35 -167 -45
-200 -10 -33 -28 -100 -40 -150 -73 -305 -279 -807 -459 -1118 -28 -49 -51
-90 -51 -92 0 -13 -223 -341 -305 -450 -138 -182 -238 -298 -400 -464 -130
-133 -362 -348 -430 -398 -17 -12 -88 -66 -160 -120 -369 -282 -785 -503
-1320 -701 -175 -66 -598 -172 -760 -192 -49 -6 -156 -20 -237 -31 -215 -29
-526 -41 -758 -29 -107 6 -202 12 -210 15 -8 2 -98 13 -200 25 -218 24 -296
36 -353 54 -23 8 -64 19 -92 25 -209 44 -561 152 -685 208 -30 14 -89 39 -130
55 -102 40 -365 168 -475 231 -428 244 -821 553 -1157 911 -182 193 -267 289
-291 329 -10 16 -46 64 -80 107 -108 137 -132 172 -217 315 -46 77 -100 167
-121 200 -46 72 -201 383 -234 469 -215 561 -256 704 -345 1196 -16 86 -38
272 -51 425 -15 184 -6 748 15 905 52 395 86 564 177 875 55 189 155 470 194
546 10 19 32 68 49 109 47 114 263 528 300 574 18 23 61 88 96 145 143 234
333 462 592 712 311 299 452 416 735 609 432 295 977 540 1498 674 51 13 162
37 355 76 95 19 318 48 465 59 148 12 549 12 715 1z"/>
<path d="M5245 9424 c-129 -9 -225 -27 -240 -45 -15 -16 -15 -18 2 -23 10 -3
52 -10 93 -15 41 -6 109 -18 150 -27 41 -9 95 -20 121 -24 140 -25 449 -135
577 -206 225 -125 429 -321 520 -499 61 -119 73 -166 79 -300 6 -146 -8 -218
-68 -337 -55 -109 -85 -153 -175 -249 -42 -44 -74 -85 -71 -92 21 -64 215 7
343 125 131 121 316 394 369 547 32 93 9 197 -78 350 -257 448 -596 694 -1072
777 -78 13 -449 26 -550 18z"/>
<path d="M4567 9294 c-10 -3 -16 -11 -14 -17 4 -13 32 -19 207 -42 350 -45
740 -158 954 -275 143 -78 268 -178 339 -269 122 -158 163 -275 155 -450 -8
-162 -42 -249 -183 -464 -90 -136 -215 -257 -215 -207 0 10 49 95 90 155 49
72 146 258 169 324 120 348 -26 600 -474 821 -239 118 -527 208 -831 261 -28
5 -79 18 -115 29 -107 35 -205 51 -304 51 -96 0 -135 -10 -135 -36 0 -18 13
-21 140 -40 412 -60 628 -137 906 -320 169 -112 346 -342 404 -526 34 -105 43
-174 38 -296 -5 -100 -10 -132 -37 -208 -59 -163 -131 -289 -131 -226 0 10 17
81 37 157 34 129 36 149 37 289 1 128 -2 160 -21 220 -48 152 -180 323 -349
450 -171 130 -473 273 -679 324 -342 83 -348 84 -478 79 -197 -8 -235 -45 -87
-83 175 -45 358 -161 541 -344 107 -108 208 -236 360 -461 122 -179 174 -253
250 -355 130 -173 152 -200 195 -245 41 -42 55 -70 36 -70 -15 0 -118 75 -186
134 -105 93 -233 245 -456 541 -410 545 -495 625 -772 729 -113 42 -187 47
-240 18 -131 -74 -164 -104 -152 -136 3 -8 54 -41 112 -72 59 -31 134 -75 168
-99 103 -74 301 -295 430 -481 57 -82 136 -191 258 -353 76 -101 180 -207 242
-247 96 -62 159 -75 396 -82 163 -5 218 -4 237 6 19 10 32 10 60 1 73 -25 437
6 541 45 25 10 54 20 65 23 92 28 183 137 278 333 130 268 132 451 9 665 -58
100 -209 252 -331 333 -112 74 -350 195 -426 217 -33 10 -84 28 -114 42 -30
13 -104 35 -165 49 -61 14 -140 35 -176 46 -110 32 -288 59 -430 63 -74 2
-143 2 -153 -1z"/>
<path d="M3425 8705 c-40 -21 -65 -52 -65 -81 0 -27 9 -33 115 -69 190 -64
278 -153 494 -500 70 -114 144 -227 181 -278 14 -19 42 -59 62 -90 66 -99 182
-158 339 -172 84 -8 119 -1 119 21 0 9 -62 77 -138 152 -141 140 -203 212
-327 383 -146 201 -296 387 -371 460 -163 158 -314 222 -409 174z"/>
<path d="M3278 8539 c-30 -17 -20 -35 42 -73 89 -55 159 -143 279 -350 52 -89
157 -234 210 -289 87 -91 228 -207 279 -229 52 -23 172 -37 172 -20 0 6 -40
45 -90 87 -103 87 -145 139 -259 320 -206 324 -273 408 -383 481 -114 75 -203
101 -250 73z"/>
<path d="M3196 8439 c-20 -16 -26 -29 -26 -59 0 -20 6 -43 14 -49 8 -7 34 -42
57 -79 200 -313 255 -381 394 -487 77 -59 189 -125 211 -125 24 0 16 14 -24
40 -20 14 -66 52 -101 85 -93 88 -167 200 -287 436 -77 152 -111 201 -164 234
-22 14 -41 25 -43 25 -3 0 -16 -9 -31 -21z"/>
<path d="M3111 8309 c-26 -29 -67 -114 -124 -264 -94 -244 -107 -326 -114
-710 -5 -286 9 -760 23 -774 9 -10 530 -13 566 -3 40 10 49 27 83 156 55 211
81 453 88 817 l2 147 -40 21 c-61 32 -157 123 -222 209 -81 106 -97 134 -164
285 -32 72 -62 133 -67 135 -6 2 -19 -7 -31 -19z"/>
<path d="M7004 8262 c-17 -11 -38 -57 -69 -147 -36 -105 -76 -183 -139 -275
-87 -125 -84 -134 27 -90 64 26 89 30 166 30 103 0 135 -7 366 -84 180 -60
202 -64 211 -41 19 50 -61 163 -257 363 -85 86 -169 173 -186 194 -45 53 -88
71 -119 50z"/>
<path d="M6890 7700 c-115 -9 -156 -23 -175 -60 -18 -35 -13 -50 42 -122 85
-112 130 -207 193 -413 38 -124 47 -157 59 -220 6 -27 15 -70 20 -95 5 -25 13
-82 16 -126 4 -45 11 -88 16 -95 7 -11 60 -14 273 -14 145 0 267 3 271 7 3 3
13 48 20 100 8 51 21 141 29 200 9 59 28 145 44 190 24 73 27 98 26 203 -1
135 -19 200 -75 268 -40 49 -68 62 -159 77 -65 10 -119 23 -290 71 -81 23
-157 38 -185 37 -16 -1 -73 -4 -125 -8z"/>
<path d="M7898 6460 c-14 -11 -39 -25 -54 -31 -21 -8 -723 -11 -2659 -10
l-2630 2 -42 25 c-23 13 -51 24 -63 24 -23 0 -140 -75 -140 -90 0 -12 94 -87
118 -94 10 -4 48 7 84 24 l66 29 2616 1 2616 1 60 -30 c33 -17 64 -31 69 -31
13 0 151 93 151 102 0 11 -135 98 -152 98 -9 0 -27 -9 -40 -20z"/>
<path d="M6210 6094 c-75 -9 -146 -34 -197 -71 -34 -25 -86 -94 -96 -128 -38
-129 -37 -116 -37 -657 0 -583 1 -595 64 -698 36 -59 103 -113 164 -130 92
-26 204 -32 535 -28 320 4 345 6 396 26 117 46 173 104 213 220 23 67 23 68
23 617 0 549 0 550 -23 617 -40 116 -94 172 -207 213 -45 16 -90 19 -425 21
-206 1 -391 0 -410 -2z m609 -332 c19 -9 43 -29 54 -44 19 -26 20 -44 19 -460
-1 -238 -1 -443 -2 -455 0 -13 -13 -37 -29 -55 l-29 -33 -224 -3 c-255 -4
-288 2 -325 57 l-23 34 0 441 c0 425 1 442 20 474 34 56 61 61 295 62 181 0
215 -2 244 -18z"/>
<path d="M3751 6062 c-396 -1 -568 -5 -578 -13 -11 -9 -13 -156 -13 -824 0
-732 2 -813 16 -819 24 -9 1157 -7 1172 2 9 7 12 46 10 163 l-3 154 -387 1
c-307 0 -390 3 -402 13 -14 12 -16 37 -14 180 l3 166 315 5 c173 3 316 7 318
8 1 1 2 72 2 157 0 85 -1 156 -2 157 -2 1 -145 5 -318 8 l-315 5 -3 153 -3
152 390 0 c214 0 396 3 405 6 14 5 16 29 16 164 0 156 0 158 -22 161 -13 2
-277 3 -587 1z"/>
<path d="M1616 6052 c-2 -4 -7 -371 -10 -814 -4 -630 -2 -809 7 -822 12 -16
53 -17 532 -14 577 4 556 2 661 73 84 58 129 164 140 329 9 145 -23 270 -92
363 -13 18 -51 49 -84 69 -33 20 -60 42 -60 48 1 6 20 25 43 42 127 94 170
333 95 532 -28 74 -95 142 -174 173 l-59 24 -497 3 c-273 2 -499 -1 -502 -6z
m839 -355 c41 -41 54 -117 35 -197 -17 -71 -54 -100 -128 -101 -251 -4 -339
-3 -354 3 -16 7 -18 24 -18 161 0 85 3 157 7 160 3 4 101 7 216 7 l209 0 33
-33z m44 -644 c41 -24 61 -77 61 -161 0 -77 -21 -130 -60 -149 -32 -16 -462
-18 -491 -3 -17 10 -19 23 -19 164 0 84 3 156 7 159 3 4 111 7 239 7 203 0
236 -2 263 -17z"/>
<path d="M4456 6038 c-23 -33 -23 -269 0 -292 13 -14 48 -16 224 -16 197 0
210 -1 220 -19 6 -13 10 -239 10 -664 0 -579 2 -645 16 -651 9 -3 89 -6 179
-6 124 0 165 3 174 13 8 10 12 205 13 668 l3 654 218 5 c179 4 219 8 227 20 6
8 9 80 7 160 l-2 145 -637 3 -637 2 -15 -22z"/>
<path d="M7525 6050 c-3 -5 -6 -375 -5 -822 0 -630 3 -814 13 -820 14 -9 328
-11 351 -2 14 5 16 56 17 458 0 248 4 460 8 470 7 18 10 16 33 -15 14 -19 68
-117 121 -219 84 -164 145 -280 304 -580 70 -130 48 -120 259 -120 100 0 189
3 198 6 14 6 16 88 16 830 l0 824 -185 0 c-166 0 -185 -2 -193 -17 -5 -10 -10
-220 -11 -468 -1 -247 -6 -454 -10 -458 -4 -4 -14 -1 -21 8 -8 9 -121 222
-251 473 l-238 457 -200 3 c-125 1 -202 -1 -206 -8z"/>
<path d="M1157 5510 c-19 -16 -46 -47 -62 -70 -27 -39 -29 -40 -84 -40 -31 1
-74 4 -96 8 -22 4 -48 6 -57 4 -27 -5 -22 -47 10 -95 32 -48 52 -91 52 -113 0
-8 -16 -49 -36 -90 -19 -41 -33 -82 -30 -90 5 -14 39 -13 146 7 50 9 65 2 134
-61 49 -45 85 -65 96 -53 4 4 12 47 18 96 5 48 16 94 23 103 7 8 36 27 63 41
102 51 121 89 59 118 -117 53 -126 59 -139 90 -7 17 -16 56 -20 86 -7 58 -19
89 -34 89 -5 0 -24 -13 -43 -30z"/>
<path d="M9261 5499 c-6 -18 -11 -42 -11 -54 0 -12 -7 -43 -16 -69 -14 -40
-23 -50 -58 -65 -22 -10 -53 -21 -67 -24 -15 -4 -37 -15 -50 -26 -22 -17 -22
-20 -7 -42 8 -13 47 -42 86 -63 81 -44 92 -63 92 -160 0 -81 8 -93 49 -76 17
7 45 29 63 49 55 64 89 72 202 50 80 -17 88 -7 58 74 -13 34 -28 78 -34 98
-12 39 -13 36 53 157 32 56 22 61 -101 55 -109 -6 -95 -13 -162 77 -44 59 -81
66 -97 19z"/>
<path d="M7871 4159 l-55 -29 -2617 0 -2618 0 -55 25 c-30 14 -64 25 -76 25
-26 0 -130 -58 -137 -77 -7 -17 12 -40 59 -69 58 -37 78 -38 139 -7 l54 28
2632 0 2632 0 55 -30 55 -30 43 24 c62 33 100 69 96 88 -4 20 -112 84 -137 82
-9 -1 -40 -15 -70 -30z"/>
<path d="M3159 3819 c-19 -19 -21 -29 -15 -88 3 -36 11 -179 16 -317 14 -338
29 -448 80 -609 32 -101 89 -225 118 -257 17 -21 42 -8 42 22 0 28 32 120 42
120 5 0 6 -20 2 -45 -19 -141 1 -258 51 -305 29 -27 50 -17 60 31 12 55 23 38
27 -44 5 -84 21 -131 61 -174 26 -29 50 -29 69 -1 14 21 15 17 27 -53 11 -68
17 -82 66 -145 103 -131 223 -324 272 -434 47 -109 142 -285 185 -344 87 -121
235 -247 292 -250 l31 -1 5 119 c4 108 7 118 20 104 9 -9 26 -70 39 -144 26
-141 37 -161 93 -170 l35 -6 6 83 c7 91 21 121 31 67 31 -158 37 -177 67 -203
35 -28 76 -42 89 -29 5 5 13 34 17 64 8 55 8 55 20 25 6 -16 19 -56 27 -87 20
-69 52 -110 120 -148 70 -41 150 -41 261 -2 96 34 166 69 182 91 13 17 37 114
48 195 9 65 25 42 25 -36 0 -99 17 -111 76 -52 44 45 67 98 83 189 27 155 51
182 51 58 0 -60 1 -63 24 -63 26 0 64 44 83 95 7 17 24 83 38 148 32 138 52
156 57 50 2 -52 7 -68 18 -71 9 -1 75 54 150 126 74 70 158 148 185 172 28 24
100 94 161 156 85 85 120 128 145 179 32 66 33 69 34 210 0 79 3 147 7 150 6
6 26 -54 42 -127 10 -43 39 -36 63 15 29 57 41 107 49 202 7 74 8 78 22 57 8
-12 21 -22 29 -22 28 0 93 175 93 251 0 20 3 51 6 69 6 26 11 31 30 27 25 -4
34 15 93 203 76 244 101 410 108 711 l6 247 -29 5 c-38 8 -267 2 -281 -6 -6
-4 -17 -31 -24 -59 l-14 -53 -5 45 c-10 90 -75 51 -117 -70 -13 -39 -26 -59
-45 -67 -29 -14 -162 -169 -172 -200 -5 -15 7 -30 52 -69 107 -89 137 -166
130 -324 -4 -82 -10 -108 -37 -165 -45 -98 -124 -203 -262 -350 -36 -38 -77
-86 -92 -104 l-26 -35 30 -33 c48 -56 35 -103 -38 -135 -62 -27 -155 -28 -190
-1 -57 42 -68 68 -68 161 0 101 10 130 119 352 l71 145 0 85 c-1 70 -5 95 -27
141 -14 31 -31 60 -38 64 -6 4 -46 -8 -88 -28 -43 -19 -98 -42 -125 -52 -43
-15 -122 -72 -187 -133 -71 -68 -167 -81 -348 -47 -77 14 -121 16 -255 10
-328 -15 -303 -17 -382 40 -208 149 -378 230 -426 204 -45 -24 -85 -174 -77
-283 6 -72 36 -145 96 -233 67 -100 85 -142 90 -220 2 -39 2 -83 -2 -98 -15
-60 -113 -81 -239 -50 -111 26 -139 67 -93 133 14 21 26 43 26 49 0 19 -62 66
-149 113 -185 100 -231 159 -231 296 0 82 25 189 52 227 11 15 13 -5 13 -125
0 -127 2 -147 21 -183 31 -58 66 -89 168 -152 107 -65 193 -136 209 -171 10
-22 8 -27 -18 -48 -17 -14 -37 -30 -45 -37 -11 -9 -4 -15 40 -29 69 -21 103
-22 140 -3 59 31 49 85 -50 265 -38 69 -76 143 -84 166 -7 22 -26 64 -40 93
-19 37 -25 59 -19 74 7 22 8 28 11 100 2 32 5 37 26 37 20 0 32 14 68 82 31
58 53 88 77 102 32 19 35 19 109 1 126 -30 164 -25 302 37 133 61 229 72 360
43 73 -16 166 -18 225 -5 186 40 209 43 269 31 33 -7 98 -31 145 -53 158 -74
207 -83 291 -53 26 9 57 13 77 9 42 -8 100 -64 142 -137 25 -44 38 -57 56 -57
21 0 23 -5 30 -79 8 -90 4 -102 -73 -203 -100 -131 -189 -305 -199 -387 -7
-63 25 -127 68 -136 36 -8 137 4 145 17 4 5 -6 22 -21 38 -44 46 -32 67 140
235 87 85 162 167 173 190 71 143 90 346 42 455 -13 30 -37 72 -53 93 -35 45
-137 120 -192 140 -46 17 -149 37 -188 37 -30 0 -77 19 -77 32 0 4 9 8 20 8
31 0 23 17 -17 37 -21 10 -38 25 -38 33 0 9 -19 21 -48 30 -52 17 -52 16 -41
43 8 22 -11 44 -91 106 -99 77 -93 75 -279 79 -162 4 -173 3 -251 -23 -70 -23
-95 -26 -171 -23 -49 3 -114 12 -144 21 -77 24 -256 33 -317 17 -48 -13 -119
-58 -188 -119 -29 -25 -36 -37 -31 -56 5 -21 1 -25 -58 -45 -36 -12 -69 -27
-75 -34 -6 -7 -30 -18 -53 -25 -24 -7 -54 -18 -68 -24 l-25 -11 28 -4 c63 -8
13 -42 -63 -42 -88 0 -136 -18 -197 -74 -52 -47 -57 -49 -67 -32 -26 47 -90
105 -135 125 -37 15 -51 28 -61 53 -36 96 -94 172 -127 166 -15 -3 -18 -14
-20 -63 -5 -129 -31 -82 -32 58 -1 78 -20 124 -56 133 -32 8 -93 -13 -98 -34
-4 -15 -5 -15 -6 0 -2 27 -57 38 -192 38 -118 0 -131 -2 -150 -21z"/>
<path d="M1003 8298 c-43 -57 -66 -91 -58 -86 12 7 78 98 72 98 -3 0 -9 -6
-14 -12z"/>
</g>
</svg>
